<?xml version="1.0"?>
<svg xmlns="http://www.w3.org/2000/svg" xmlns:xlink="http://www.w3.org/1999/xlink" xmlns:svgjs="http://svgjs.com/svgjs" version="1.1" width="512" height="512" x="0" y="0" viewBox="0 0 52.666 52.666" style="enable-background:new 0 0 512 512" xml:space="preserve" class=""><g>
<g xmlns="http://www.w3.org/2000/svg">
	<path d="M48.832,3.125H3.834C1.721,3.125,0,4.846,0,6.959v28.997c0,2.115,1.721,3.835,3.834,3.835h21.499v7.75h-6.875   c-0.552,0-1,0.448-1,1c0,0.554,0.448,1,1,1h15.625c0.552,0,1-0.446,1-1c0-0.552-0.448-1-1-1h-6.75v-7.75h21.499   c2.113,0,3.834-1.72,3.834-3.835V6.959C52.666,4.846,50.945,3.125,48.832,3.125z M50.666,35.957c0,1.012-0.822,1.835-1.834,1.835   H3.834C2.822,37.792,2,36.968,2,35.957V6.959c0-1.012,0.822-1.835,1.834-1.835h44.998c1.012,0,1.834,0.823,1.834,1.835V35.957z" fill="#0088cc" data-original="#000000" style=""/>
</g>
<g xmlns="http://www.w3.org/2000/svg">
</g>
<g xmlns="http://www.w3.org/2000/svg">
</g>
<g xmlns="http://www.w3.org/2000/svg">
</g>
<g xmlns="http://www.w3.org/2000/svg">
</g>
<g xmlns="http://www.w3.org/2000/svg">
</g>
<g xmlns="http://www.w3.org/2000/svg">
</g>
<g xmlns="http://www.w3.org/2000/svg">
</g>
<g xmlns="http://www.w3.org/2000/svg">
</g>
<g xmlns="http://www.w3.org/2000/svg">
</g>
<g xmlns="http://www.w3.org/2000/svg">
</g>
<g xmlns="http://www.w3.org/2000/svg">
</g>
<g xmlns="http://www.w3.org/2000/svg">
</g>
<g xmlns="http://www.w3.org/2000/svg">
</g>
<g xmlns="http://www.w3.org/2000/svg">
</g>
<g xmlns="http://www.w3.org/2000/svg">
</g>
</g></svg>
